<mxfile host="65bd71144e">
    <diagram id="1bxqK2nps0Ur9sr6FGYO" name="Page-1">
        <mxGraphModel dx="1082" dy="1849" grid="1" gridSize="10" guides="1" tooltips="1" connect="1" arrows="1" fold="1" page="1" pageScale="1" pageWidth="850" pageHeight="1100" math="0" shadow="0">
            <root>
                <mxCell id="0"/>
                <mxCell id="1" parent="0"/>
                <mxCell id="2" value="" style="edgeStyle=none;html=1;" edge="1" parent="1" source="3">
                    <mxGeometry relative="1" as="geometry">
                        <mxPoint x="385.30999999999995" y="80" as="targetPoint"/>
                    </mxGeometry>
                </mxCell>
                <mxCell id="3" value="Start" style="strokeWidth=2;html=1;shape=mxgraph.flowchart.terminator;whiteSpace=wrap;" vertex="1" parent="1">
                    <mxGeometry x="335.31" y="-30" width="100" height="60" as="geometry"/>
                </mxCell>
                <mxCell id="28" value="" style="edgeStyle=none;html=1;" edge="1" parent="1" source="16" target="27">
                    <mxGeometry relative="1" as="geometry"/>
                </mxCell>
                <mxCell id="16" value="get listArray" style="shape=parallelogram;html=1;strokeWidth=2;perimeter=parallelogramPerimeter;whiteSpace=wrap;rounded=1;arcSize=12;size=0.23;" vertex="1" parent="1">
                    <mxGeometry x="335.31" y="80" width="100" height="60" as="geometry"/>
                </mxCell>
                <mxCell id="30" value="" style="edgeStyle=none;html=1;fontFamily=Helvetica;" edge="1" parent="1" source="27" target="29">
                    <mxGeometry relative="1" as="geometry"/>
                </mxCell>
                <mxCell id="27" value="sum = 0" style="rounded=1;whiteSpace=wrap;html=1;absoluteArcSize=1;arcSize=14;strokeWidth=2;" vertex="1" parent="1">
                    <mxGeometry x="350.31" y="170" width="70" height="60" as="geometry"/>
                </mxCell>
                <mxCell id="32" value="" style="edgeStyle=none;html=1;fontFamily=Helvetica;fontSize=9;" edge="1" parent="1" source="29">
                    <mxGeometry relative="1" as="geometry">
                        <mxPoint x="385.30999999999995" y="400" as="targetPoint"/>
                    </mxGeometry>
                </mxCell>
                <mxCell id="29" value="&lt;pre style=&quot;color: rgb(255 , 255 , 255) ; overflow-wrap: break-word&quot;&gt;&lt;font face=&quot;Helvetica&quot;&gt;arraySize = listArray.length&lt;/font&gt;&lt;/pre&gt;" style="rounded=1;whiteSpace=wrap;html=1;absoluteArcSize=1;arcSize=14;strokeWidth=2;" vertex="1" parent="1">
                    <mxGeometry x="313.03999999999996" y="260" width="144.54" height="110" as="geometry"/>
                </mxCell>
                <mxCell id="38" style="edgeStyle=none;rounded=0;html=1;entryX=-0.002;entryY=0.417;entryDx=0;entryDy=0;entryPerimeter=0;fontFamily=Helvetica;fontSize=9;" edge="1" parent="1" source="33" target="33">
                    <mxGeometry relative="1" as="geometry">
                        <Array as="points">
                            <mxPoint x="385" y="880"/>
                            <mxPoint x="160" y="880"/>
                            <mxPoint x="160" y="760"/>
                        </Array>
                    </mxGeometry>
                </mxCell>
                <mxCell id="33" value="&lt;pre style=&quot;color: rgb(255 , 255 , 255) ; overflow-wrap: break-word&quot;&gt;&lt;pre style=&quot;overflow-wrap: break-word&quot;&gt;&lt;font face=&quot;Helvetica&quot;&gt;sum += listArray[loopCounterTwo]&lt;/font&gt;&lt;/pre&gt;&lt;/pre&gt;" style="rounded=1;whiteSpace=wrap;html=1;absoluteArcSize=1;arcSize=14;strokeWidth=2;" vertex="1" parent="1">
                    <mxGeometry x="290.31" y="710" width="190" height="120" as="geometry"/>
                </mxCell>
                <mxCell id="37" value="" style="edgeStyle=none;rounded=0;html=1;fontFamily=Helvetica;fontSize=9;" edge="1" parent="1" source="36" target="33">
                    <mxGeometry relative="1" as="geometry"/>
                </mxCell>
                <mxCell id="41" style="edgeStyle=none;rounded=0;html=1;entryX=0.5;entryY=0;entryDx=0;entryDy=0;fontFamily=Helvetica;fontSize=9;" edge="1" parent="1" source="36" target="39">
                    <mxGeometry relative="1" as="geometry">
                        <Array as="points">
                            <mxPoint x="610" y="540"/>
                            <mxPoint x="610" y="900"/>
                            <mxPoint x="385" y="900"/>
                        </Array>
                    </mxGeometry>
                </mxCell>
                <mxCell id="36" value="&lt;pre style=&quot;font-size: 12px ; color: rgb(255 , 255 , 255) ; overflow-wrap: break-word&quot;&gt;&lt;font face=&quot;Helvetica&quot; style=&quot;font-size: 9px&quot;&gt;for (let loopCounterTwo = 0; loopCounterTwo &amp;lt; arraySize; loopCounterTwo++)&lt;/font&gt;&lt;/pre&gt;" style="strokeWidth=2;html=1;shape=mxgraph.flowchart.decision;whiteSpace=wrap;fontFamily=Helvetica;fontSize=9;" vertex="1" parent="1">
                    <mxGeometry x="225.31" y="400" width="320" height="280" as="geometry"/>
                </mxCell>
                <mxCell id="45" value="" style="edgeStyle=none;rounded=0;html=1;fontFamily=Helvetica;fontSize=9;" edge="1" parent="1" source="39">
                    <mxGeometry relative="1" as="geometry">
                        <mxPoint x="385.30999999999995" y="1070" as="targetPoint"/>
                    </mxGeometry>
                </mxCell>
                <mxCell id="39" value="&lt;pre style=&quot;color: rgb(255 , 255 , 255) ; overflow-wrap: break-word&quot;&gt;&lt;pre style=&quot;overflow-wrap: break-word&quot;&gt;&lt;font face=&quot;Helvetica&quot;&gt;mean = sum / arraySize&lt;/font&gt;&lt;/pre&gt;&lt;/pre&gt;" style="rounded=1;whiteSpace=wrap;html=1;absoluteArcSize=1;arcSize=14;strokeWidth=2;" vertex="1" parent="1">
                    <mxGeometry x="313.03999999999996" y="920" width="144.54" height="110" as="geometry"/>
                </mxCell>
                <mxCell id="42" value="Yes" style="text;html=1;resizable=0;autosize=1;align=center;verticalAlign=middle;points=[];fillColor=none;strokeColor=none;rounded=0;fontFamily=Helvetica;fontSize=9;" vertex="1" parent="1">
                    <mxGeometry x="389.99999999999994" y="680" width="30" height="20" as="geometry"/>
                </mxCell>
                <mxCell id="44" value="No" style="text;html=1;resizable=0;autosize=1;align=center;verticalAlign=middle;points=[];fillColor=none;strokeColor=none;rounded=0;fontFamily=Helvetica;fontSize=9;" vertex="1" parent="1">
                    <mxGeometry x="560" y="520" width="30" height="20" as="geometry"/>
                </mxCell>
                <mxCell id="48" value="" style="edgeStyle=none;rounded=0;html=1;fontFamily=Helvetica;fontSize=9;" edge="1" parent="1" source="46" target="47">
                    <mxGeometry relative="1" as="geometry"/>
                </mxCell>
                <mxCell id="46" value="return mean" style="shape=parallelogram;html=1;strokeWidth=2;perimeter=parallelogramPerimeter;whiteSpace=wrap;rounded=1;arcSize=12;size=0.23;" vertex="1" parent="1">
                    <mxGeometry x="335.31" y="1070" width="100" height="60" as="geometry"/>
                </mxCell>
                <mxCell id="47" value="Stop" style="strokeWidth=2;html=1;shape=mxgraph.flowchart.terminator;whiteSpace=wrap;" vertex="1" parent="1">
                    <mxGeometry x="335.31" y="1160" width="100" height="60" as="geometry"/>
                </mxCell>
            </root>
        </mxGraphModel>
    </diagram>
</mxfile>